<?xml version="1.0" encoding="UTF-8"?>
<!DOCTYPE svg PUBLIC "-//W3C//DTD SVG 1.1//EN" "http://www.w3.org/Graphics/SVG/1.1/DTD/svg11.dtd">
<svg xmlns="http://www.w3.org/2000/svg" xmlns:xlink="http://www.w3.org/1999/xlink" xml:space="preserve" width="6.82666in" height="6.82666in" style="shape-rendering:geometricPrecision; text-rendering:geometricPrecision; image-rendering:optimizeQuality; fill-rule:evenodd; clip-rule:evenodd" viewBox="0 0 6.82666 6.82666">
 <defs>
  <style type="text/css">
   <![CDATA[
    .fil1 {fill:none}
    .fil0 {fill:#1E88E5}
   ]]>
  </style>
 </defs>
 <g id="Layer_x0020_1">
  
  <g id="_247788648">
   <g>
    <path id="_247789392" class="fil0" d="M0.853331 4.39672l0 0.196177c0.431843,-0.0993228 0.859287,-0.0147244 1.29165,0.0735394 0.259024,0.052878 0.535776,0.112217 0.801016,0.105638 0.186587,-0.00462992 0.319693,-0.0454567 0.491732,-0.109035 0.208453,-0.0770354 0.372795,-0.124441 0.598528,-0.132244 0.40874,-0.0141339 0.807854,0.0892008 1.19929,0.194075 0.156512,0.0419331 0.316374,0.086374 0.476035,0.114059 0.0795,0.0137874 0.174874,0.0261654 0.261756,0.0195039l0 -0.211961c-0.275665,0.0110512 -0.594417,-0.0818583 -0.846161,-0.149307 -0.345291,-0.0925157 -0.715941,-0.192421 -1.07635,-0.179957 -0.176665,0.0061063 -0.305685,0.0468465 -0.46876,0.107102 -0.0891614,0.0329488 -0.176961,0.0644685 -0.269386,0.0875039 -0.117398,0.0292598 -0.235441,0.0437283 -0.35635,0.0467283 -0.30215,0.0075 -0.600453,-0.053563 -0.894949,-0.113685 -0.393567,-0.0803465 -0.814791,-0.169854 -1.20804,-0.0481378z" style="fill: #1E88E5;"/>
   </g>
   <g>
    <path id="_247789152" class="fil0" d="M0.853331 3.80927l0 0.196181c0.431843,-0.0993268 0.859287,-0.0147244 1.29165,0.0735354 0.259024,0.0528819 0.535776,0.11222 0.801016,0.105638 0.186587,-0.00462992 0.319693,-0.0454567 0.491732,-0.109031 0.208453,-0.0770394 0.372795,-0.124441 0.598528,-0.132244 0.40874,-0.0141378 0.807854,0.0892008 1.19929,0.194075 0.156512,0.0419331 0.316374,0.086374 0.476035,0.114059 0.0795,0.0137874 0.174874,0.0261614 0.261756,0.0195l0 -0.211961c-0.275665,0.0110551 -0.594417,-0.0818543 -0.846161,-0.149303 -0.345291,-0.0925157 -0.715941,-0.192421 -1.07635,-0.179961 -0.176665,0.00611024 -0.305685,0.0468465 -0.46876,0.107106 -0.0891614,0.0329488 -0.176961,0.0644685 -0.269386,0.0875 -0.117398,0.0292638 -0.235441,0.0437323 -0.35635,0.0467323 -0.30215,0.00749606 -0.600453,-0.0535669 -0.894949,-0.113685 -0.393567,-0.0803465 -0.814791,-0.169854 -1.20804,-0.0481417z" style="fill: #1E88E5;"/>
   </g>
   <g>
    <path id="_247788936" class="fil0" d="M0.853331 3.22183l0 0.196177c0.431843,-0.0993189 0.859287,-0.0147244 1.29165,0.0735394 0.259024,0.0528819 0.535776,0.112217 0.801016,0.105638 0.186587,-0.00462992 0.319693,-0.0454567 0.491732,-0.109035 0.208453,-0.0770354 0.372795,-0.124437 0.598528,-0.132244 0.40874,-0.0141339 0.807854,0.0892008 1.19929,0.194079 0.156512,0.0419331 0.316374,0.086374 0.476035,0.114055 0.0795,0.0137874 0.174874,0.0261654 0.261756,0.0195039l0 -0.211961c-0.275665,0.0110551 -0.594417,-0.0818543 -0.846161,-0.149303 -0.345291,-0.0925157 -0.715941,-0.192421 -1.07635,-0.179961 -0.176665,0.00611024 -0.305685,0.0468465 -0.46876,0.107106 -0.0891614,0.0329488 -0.176961,0.0644646 -0.269386,0.0875 -0.117398,0.0292598 -0.235441,0.0437323 -0.35635,0.0467323 -0.30215,0.00749606 -0.600453,-0.0535669 -0.894949,-0.113685 -0.393567,-0.0803504 -0.814791,-0.169858 -1.20804,-0.0481417z" style="fill: #1E88E5;"/>
   </g>
   <g>
    <path id="_247788384" class="fil0" d="M0.853331 2.83057c0.431843,-0.0993228 0.859287,-0.0147244 1.29165,0.0735394 0.259024,0.052878 0.535776,0.112217 0.801016,0.105638 0.186587,-0.00462992 0.319693,-0.0454567 0.491732,-0.109035 0.208453,-0.0770354 0.372795,-0.124441 0.598528,-0.132244 0.40874,-0.0141339 0.807854,0.0892008 1.19929,0.194075 0.156512,0.041937 0.316374,0.086374 0.476035,0.114059 0.0795,0.0137874 0.174874,0.0261654 0.261756,0.0195039l0 -0.211961c-0.275665,0.0110512 -0.594417,-0.0818543 -0.846161,-0.149307 -0.345291,-0.0925157 -0.715941,-0.192421 -1.07635,-0.179957 -0.176665,0.0061063 -0.305685,0.0468465 -0.46876,0.107102 -0.0891614,0.0329488 -0.176961,0.0644685 -0.269386,0.0875039 -0.117398,0.0292598 -0.235441,0.0437323 -0.35635,0.0467283 -0.30215,0.0075 -0.600453,-0.053563 -0.894949,-0.113685 -0.393567,-0.0803465 -0.814791,-0.169854 -1.20804,-0.0481378l0 0.196177z" style="fill: #1E88E5;"/>
   </g>
   <g>
    <path id="_247787928" class="fil0" d="M0.853331 2.24313c0.431843,-0.0993268 0.859287,-0.0147244 1.29165,0.0735354 0.259024,0.0528819 0.535776,0.11222 0.801016,0.105638 0.186587,-0.00462598 0.319693,-0.0454567 0.491732,-0.109031 0.208453,-0.0770394 0.372795,-0.124441 0.598528,-0.132244 0.40874,-0.0141378 0.807854,0.0892008 1.19929,0.194075 0.156512,0.0419331 0.316374,0.086374 0.476035,0.114059 0.0795,0.0137874 0.174874,0.0261614 0.261756,0.0195l0 -0.211961c-0.275665,0.0110551 -0.594417,-0.0818543 -0.846161,-0.149303 -0.345291,-0.0925157 -0.715941,-0.192421 -1.07635,-0.179957 -0.176665,0.0061063 -0.305685,0.0468425 -0.46876,0.107102 -0.0891614,0.0329488 -0.176961,0.0644685 -0.269386,0.0875 -0.117398,0.0292638 -0.235441,0.0437323 -0.35635,0.0467323 -0.30215,0.00749606 -0.600453,-0.053563 -0.894949,-0.113685 -0.393567,-0.0803465 -0.814791,-0.169854 -1.20804,-0.0481417l0 0.196181z" style="fill: #1E88E5;"/>
   </g>
  </g>
 </g>
 <rect class="fil1" width="6.82666" height="6.82666" style="fill: none;"/>

	
	<metadata>
		<rdf:RDF xmlns:rdf="http://www.w3.org/1999/02/22-rdf-syntax-ns#" xmlns:rdfs="http://www.w3.org/2000/01/rdf-schema#" xmlns:dc="http://purl.org/dc/elements/1.1/">
			<rdf:Description about="https://iconscout.com/legal#licenses" dc:title="Haze, Air, Mist, Weather, Wind" dc:description="Haze, Air, Mist, Weather, Wind" dc:publisher="Iconscout" dc:date="2016-12-14" dc:format="image/svg+xml" dc:language="en">
				<dc:creator>
					<rdf:Bag>
						<rdf:li>Design 0 Fire</rdf:li>
					</rdf:Bag>
				</dc:creator>
			</rdf:Description>
		</rdf:RDF>
    </metadata></svg>
